# xmcd CD database file
#
# Track frame offsets:
#	150
#	5363
#	9963
#	16950
#	33900
#	48975
#	59025
#	83250
#	91240
#	104700
#	122025
#	131542
#	145650
#	164716
#	179361
#	191400
#	209642
#	219427
#
# Disc length: 3157 seconds
#
# Revision: 1
# Processed by: cddbd v1.5.1PL0 Copyright (c) Steve Scherf et al.
# Submitted via: CDex 1.51
#
DISCID=f10c5312
DTITLE=The English Concert - Pinnock - Vivaldi Concerti "Alla Rustica" 320
DYEAR=1986
DGENRE=Concerto
TTITLE0=Concerto in G "alla rustica" -I- Presto
TTITLE1=Concerto in G "alla rustica" -II- Adagio
TTITLE2=Concerto in G "alla rustica" -III- Allegro
TTITLE3=Concerto for Oboe and Violin in Bb -I- Allegro
TTITLE4=Concerto for Oboe and Violin in Bb -II- Largo
TTITLE5=Concerto for Oboe and Violin in Bb -III- Allegro
TTITLE6=Concerto in C "con molti stromenti" -I- Allegro molto
TTITLE7=Concerto in C "con molti stromenti" -II- Andante molto
TTITLE8=Concerto in C "con molti stromenti" -III- Allegro
TTITLE9=Concerto for 2 Violins in G -I- Allegro molto
TTITLE10=Concerto for 2 Violins in G -II- Andante (molto)
TTITLE11=Concerto for 2 Violins in G -III- Allegro
TTITLE12=Concerto for Oboe in A Minor -I- Allegro non molto
TTITLE13=Concerto for Oboe in A Minor -II- Larghetto
TTITLE14=Concerto for Oboe in A Minor -III- Allegro
TTITLE15=Concerto for 2 Mandolins in G -I- Allegro
TTITLE16=Concerto for 2 Mandolins in G -II- Andante
TTITLE17=Concerto for 2 Mandolins in G -III- Allegro
EXTD=YEAR: 1986
EXTT0=
EXTT1=
EXTT2=
EXTT3=
EXTT4=
EXTT5=
EXTT6=
EXTT7=
EXTT8=
EXTT9=
EXTT10=
EXTT11=
EXTT12=
EXTT13=
EXTT14=
EXTT15=
EXTT16=
EXTT17=
PLAYORDER=
